<?xml version="1.0" encoding="UTF-8" standalone="no"?>
<!DOCTYPE svg PUBLIC "-//W3C//DTD SVG 1.1//EN" "http://www.w3.org/Graphics/SVG/1.1/DTD/svg11.dtd">
<svg width="100%" height="100%" viewBox="0 0 1004 638" version="1.1" xmlns="http://www.w3.org/2000/svg" xmlns:xlink="http://www.w3.org/1999/xlink" xml:space="preserve" xmlns:serif="http://www.serif.com/" style="fill-rule:evenodd;clip-rule:evenodd;stroke-linecap:square;stroke-miterlimit:1.5;">
    <g transform="matrix(1.202992,0,0,1.308407,183.103526,-293.772393)">
        <g transform="matrix(1.087627,0,0,1,-13.757488,0)">
            <g transform="matrix(125,0,0,125,157,514)">
                <path d="M0.3,0.01C0.257,0.01 0.22,0.002 0.189,-0.015C0.158,-0.031 0.134,-0.055 0.118,-0.087C0.101,-0.118 0.093,-0.155 0.093,-0.197L0.093,-0.533C0.093,-0.576 0.101,-0.613 0.118,-0.644C0.134,-0.675 0.158,-0.698 0.189,-0.715C0.22,-0.732 0.257,-0.74 0.3,-0.74C0.343,-0.74 0.38,-0.732 0.411,-0.715C0.442,-0.698 0.466,-0.675 0.482,-0.644C0.499,-0.613 0.507,-0.576 0.507,-0.533L0.507,-0.197C0.507,-0.155 0.499,-0.118 0.482,-0.087C0.466,-0.055 0.442,-0.031 0.411,-0.015C0.38,0.002 0.343,0.01 0.3,0.01ZM0.3,-0.061C0.341,-0.061 0.373,-0.073 0.395,-0.097C0.417,-0.12 0.428,-0.154 0.428,-0.197L0.428,-0.533C0.428,-0.576 0.417,-0.61 0.395,-0.633C0.373,-0.657 0.341,-0.669 0.3,-0.669C0.26,-0.669 0.228,-0.657 0.206,-0.633C0.183,-0.61 0.172,-0.576 0.172,-0.533L0.172,-0.197C0.172,-0.154 0.183,-0.12 0.205,-0.097C0.228,-0.073 0.259,-0.061 0.3,-0.061Z" style="fill-rule:nonzero;"/>
            </g>
            <g transform="matrix(125,0,0,125,231.998856,514)">
                <path d="M0.097,-0L0.097,-0.73L0.317,-0.73C0.361,-0.73 0.398,-0.721 0.431,-0.704C0.463,-0.687 0.488,-0.663 0.506,-0.631C0.523,-0.6 0.532,-0.564 0.532,-0.522C0.532,-0.472 0.519,-0.429 0.492,-0.394C0.466,-0.358 0.429,-0.335 0.383,-0.323L0.541,-0L0.447,-0L0.301,-0.315L0.176,-0.315L0.176,-0L0.097,-0ZM0.176,-0.387L0.317,-0.387C0.358,-0.387 0.39,-0.399 0.414,-0.424C0.439,-0.449 0.451,-0.482 0.451,-0.523C0.451,-0.564 0.439,-0.597 0.414,-0.622C0.39,-0.646 0.358,-0.658 0.317,-0.658L0.176,-0.658L0.176,-0.387Z" style="fill-rule:nonzero;"/>
            </g>
            <g transform="matrix(125,0,0,125,306.997711,514)">
                <path d="M0.098,-0L0.098,-0.73L0.299,-0.73C0.365,-0.73 0.416,-0.713 0.453,-0.68C0.49,-0.646 0.509,-0.6 0.509,-0.541C0.509,-0.508 0.502,-0.478 0.488,-0.453C0.475,-0.428 0.455,-0.409 0.43,-0.396C0.405,-0.382 0.375,-0.375 0.34,-0.376L0.34,-0.39C0.378,-0.39 0.411,-0.383 0.439,-0.368C0.466,-0.352 0.488,-0.331 0.503,-0.302C0.519,-0.274 0.526,-0.241 0.526,-0.202C0.526,-0.161 0.518,-0.125 0.5,-0.095C0.483,-0.064 0.458,-0.041 0.426,-0.025C0.394,-0.008 0.356,-0 0.311,-0L0.098,-0ZM0.175,-0.072L0.304,-0.072C0.348,-0.072 0.384,-0.084 0.409,-0.107C0.435,-0.131 0.448,-0.163 0.448,-0.204C0.448,-0.246 0.435,-0.28 0.409,-0.306C0.384,-0.331 0.348,-0.344 0.304,-0.344L0.175,-0.344L0.175,-0.072ZM0.175,-0.413L0.299,-0.413C0.34,-0.413 0.372,-0.424 0.395,-0.446C0.419,-0.468 0.43,-0.498 0.43,-0.536C0.43,-0.574 0.419,-0.604 0.396,-0.625C0.372,-0.647 0.34,-0.658 0.299,-0.658L0.175,-0.658L0.175,-0.413Z" style="fill-rule:nonzero;"/>
            </g>
        </g>
        <g transform="matrix(1.087627,0,0,1,-35.200978,0)">
            <g transform="matrix(125,0,0,125,401.712411,514)">
                <path d="M0.109,-0L0.109,-0.072L0.26,-0.072L0.26,-0.658L0.109,-0.658L0.109,-0.73L0.491,-0.73L0.491,-0.658L0.341,-0.658L0.341,-0.072L0.491,-0.072L0.491,-0L0.109,-0Z" style="fill:rgb(242,100,57);fill-rule:nonzero;"/>
            </g>
            <g transform="matrix(125,0,0,125,476.711266,514)">
                <path d="M0.095,-0L0.095,-0.73L0.201,-0.73L0.436,-0.092C0.435,-0.107 0.434,-0.126 0.433,-0.148C0.431,-0.171 0.43,-0.193 0.429,-0.217C0.428,-0.24 0.428,-0.261 0.428,-0.28L0.428,-0.73L0.505,-0.73L0.505,-0L0.398,-0L0.165,-0.638C0.166,-0.625 0.167,-0.608 0.168,-0.587C0.169,-0.566 0.17,-0.544 0.171,-0.52C0.172,-0.496 0.172,-0.473 0.172,-0.45L0.172,-0L0.095,-0Z" style="fill:rgb(242,100,57);fill-rule:nonzero;"/>
            </g>
            <g transform="matrix(125,0,0,125,551.710122,514)">
                <path d="M0.261,-0L0.261,-0.658L0.056,-0.658L0.056,-0.731L0.544,-0.731L0.544,-0.658L0.34,-0.658L0.34,-0L0.261,-0Z" style="fill:rgb(242,100,57);fill-rule:nonzero;"/>
            </g>
            <g transform="matrix(125,0,0,125,626.708978,514)">
            </g>
        </g>
    </g>
    <g transform="matrix(-0,1.532075,-2.186623,0.795866,895.843612,-683.615438)">
        <circle cx="483.5" cy="327.5" r="48.5" style="fill:none;stroke:black;stroke-width:3.57px;"/>
    </g>
    <g transform="matrix(-0,-1.532075,-2.186623,-0.795866,895.843612,1319.135374)">
        <circle cx="483.5" cy="327.5" r="48.5" style="fill:none;stroke:black;stroke-width:3.57px;"/>
    </g>
    <g transform="matrix(-0,-1.532075,-2.625234,0,1039.488974,1056.375482)">
        <circle cx="483.5" cy="327.5" r="48.5" style="fill:none;stroke:black;stroke-width:3.75px;"/>
    </g>
    <g transform="matrix(0,3.637936,-3.637936,0,1383.578592,-1223.986015)">
        <circle cx="423.5" cy="331.5" r="10.5" style="fill:rgb(242,100,57);"/>
    </g>
</svg>
