<?xml version="1.0" encoding="UTF-8" standalone="no"?>
<!DOCTYPE svg PUBLIC "-//W3C//DTD SVG 1.1//EN" "http://www.w3.org/Graphics/SVG/1.1/DTD/svg11.dtd">
<svg width="100%" height="100%" viewBox="0 0 4961 3508" version="1.1" xmlns="http://www.w3.org/2000/svg" xmlns:xlink="http://www.w3.org/1999/xlink" xml:space="preserve" xmlns:serif="http://www.serif.com/" style="fill-rule:evenodd;clip-rule:evenodd;stroke-linejoin:round;stroke-miterlimit:2;">
    <g transform="matrix(1.612351,0,0,1.612351,-1060.466411,-846.824582)">
        <g transform="matrix(4.166667,0,0,4.166667,100.13991,118.347167)">
            <path d="M425.19,524.72C386.54,518.81 345.27,500.27 313.85,474.42C305.15,467.36 287.18,449.64 287.18,448.25C287.18,447.84 289.15,446.36 291.53,444.97C293.83,443.58 296.86,441.28 298.18,439.88C299.57,438.49 300.97,437.34 301.3,437.34C301.71,437.34 306.39,441.52 311.64,446.69C329.45,464.17 347.74,477.05 369.65,487.8C426.27,515.62 481.08,515.29 523.74,486.82C533.34,480.5 546.8,467.46 552.87,458.76C555.25,455.4 557.14,452.93 557.14,453.18C557.14,453.43 555.99,456.79 554.6,460.65C550.17,473.04 542.95,483.46 531.13,494.87C516.03,509.39 497.98,518.75 475.91,523.51C464.92,525.89 437.35,526.55 425.2,524.74L425.19,524.72Z" style="fill:white;fill-rule:nonzero;"/>
        </g>
        <g transform="matrix(4.166667,0,0,4.166667,100.13991,118.347167)">
            <path d="M251.9,440.7C240.82,437.17 230.98,429.46 225.4,419.94C222.36,414.69 218.51,402.87 217.52,395.24C214.89,376.04 218.67,353.72 226.63,341.25C235.08,327.96 248.37,320.82 264.37,320.82C276.1,320.82 285.79,324.59 293.83,332.39C304.09,342.4 309.58,356.84 310.65,376.62C311.55,392.54 309.17,405.91 303.59,417.24C297.85,428.97 289.72,436.19 277.91,440.21C270.2,442.75 259.04,443 251.9,440.7ZM277.42,427.98C282.84,425.44 289.4,418.87 292.35,413.05C301.21,395.57 300.14,362.26 290.38,346.92C282.83,335.19 269.62,330.02 256,333.46C243.69,336.58 235.49,345.93 231.22,361.69C228.92,370.06 228.76,391.39 230.81,399.76C232.53,406.73 236.31,415.19 239.51,419.21C242.79,423.39 250.09,428.32 254.94,429.63C261.26,431.44 271.84,430.61 277.42,427.99L277.42,427.98Z" style="fill:white;fill-rule:nonzero;"/>
        </g>
        <g transform="matrix(4.166667,0,0,4.166667,100.13991,118.347167)">
            <path d="M402.46,438.56C401.48,437.25 394.42,426.58 386.87,415.01L373.09,393.84L346.26,393.84L346.26,440.6L334.78,440.6L334.78,321.62L358.41,321.62C383.44,321.62 387.54,322.11 394.84,325.8C400.58,328.75 405.67,334.17 408.71,340.65C411.42,346.48 411.5,346.97 411.5,356.9C411.5,368.55 410.11,373.31 404.77,380.28C401.49,384.63 393.36,390.21 389.26,391.03C387.7,391.28 386.47,391.85 386.47,392.18C386.47,392.51 393.53,403.34 402.06,416.22C410.68,429.1 417.65,439.93 417.65,440.34C417.65,440.67 414.61,441 411,441C404.52,441 404.19,440.92 402.47,438.54L402.46,438.56ZM386.46,379.4C392.12,376.77 394.25,374.81 396.96,369.64C399.75,364.14 400.41,354.13 398.35,347.9C396.71,342.81 392.44,337.89 387.77,335.35C384.65,333.71 383.09,333.54 365.37,333.3L346.25,333.05L346.25,381.55L364.14,381.55C381.53,381.55 382.03,381.47 386.46,379.42L386.46,379.4Z" style="fill:white;fill-rule:nonzero;"/>
        </g>
        <g transform="matrix(4.166667,0,0,4.166667,100.13991,118.347167)">
            <path d="M446.19,440.78L440.61,440.53L440.61,321.63L465.47,321.63C493.37,321.63 497.06,322.12 504.36,326.96C509.2,330.16 511.91,333.44 514.53,339.27C516.01,342.63 516.34,344.93 516.42,351.58C516.42,363.64 513.71,369.63 505.43,375.87L502.56,378L505.84,379.72C510.76,382.18 515.19,387.02 518.07,393.01C520.45,398.02 520.61,398.92 520.61,407.78C520.61,416.64 520.45,417.54 518.07,422.55C513.8,431.58 509.86,435.19 500.1,438.96C495.42,440.85 494.27,440.93 473.43,441.01C461.45,441.01 449.22,440.93 446.19,440.76L446.19,440.78ZM497.39,427.24C504.94,423.55 508.71,416.98 508.71,407.38C508.71,398.19 504.69,391.3 496.81,387.03C493.77,385.31 492.22,385.22 473.26,384.98L452.91,384.65L452.91,406.8C452.91,418.94 453.16,429.12 453.57,429.45C453.9,429.78 462.84,429.94 473.43,429.78C492.55,429.53 492.71,429.53 497.39,427.24ZM492.71,371.77C500.18,368.32 504.12,361.68 504.12,352.82C504.12,346.17 502.89,342.4 499.53,338.95C494.36,333.7 493.79,333.53 472.45,333.29L452.92,333.04L452.92,373.32L471.22,373.32C487.14,373.32 489.85,373.07 492.72,371.76L492.71,371.77Z" style="fill:white;fill-rule:nonzero;"/>
        </g>
        <g transform="matrix(4.166667,0,0,4.166667,100.13991,118.347167)">
            <path d="M545.64,395.08L545.64,349.54L557.94,349.54L557.94,393.68C557.94,444.47 558.6,440.61 550.31,440.61L545.63,440.61L545.63,395.07L545.64,395.08Z" style="fill:white;fill-rule:nonzero;"/>
        </g>
        <g transform="matrix(4.166667,0,0,4.166667,100.13991,118.347167)">
            <path d="M236.55,308.51C239.67,254.6 278.07,208.98 331.48,195.77C345.76,192.24 351.5,191.67 368.81,191.67C386.62,191.67 395.31,192.74 413.12,196.92C447.34,205.04 477.04,220.8 504.44,245.25C507.72,248.2 511.33,251.81 512.56,253.37C514.45,255.91 514.12,255.75 508.46,251.65C466.53,220.55 417.55,204.88 371.27,207.67C330.16,210.13 295.78,228.92 275.68,259.85C266.57,273.8 260.99,289.14 259.52,304.24L258.86,310.48L253.12,311.87C249.92,312.61 244.91,314.25 242.04,315.4C239.17,316.55 236.62,317.53 236.46,317.53C236.21,317.53 236.3,313.51 236.54,308.5L236.55,308.51Z" style="fill:white;fill-rule:nonzero;"/>
        </g>
        <g transform="matrix(4.166667,0,0,4.166667,100.13991,118.347167)">
            <path d="M587.49,381.13L587.49,321.64L604.47,321.64L613.33,336.66C618.25,344.87 624.08,354.71 626.29,358.57C628.59,362.43 633.26,370.39 636.71,376.21C652.38,402.55 655.5,407.88 659.68,415.51L664.19,423.63L664.44,372.68L664.6,321.64L676.9,321.64L676.9,440.62L660.66,440.62L652.04,426.1C647.36,418.06 638.42,402.8 632.18,392.21C614.37,361.85 602.48,341.91 601.08,340.11C599.52,338.14 599.69,331.74 599.77,392.87L599.85,440.62L587.46,440.62L587.46,381.13L587.49,381.13Z" style="fill:white;fill-rule:nonzero;"/>
        </g>
        <g transform="matrix(4.166667,0,0,4.166667,100.13991,118.347167)">
            <path d="M740.1,386.87L740.1,333.13L703.18,333.13L703.18,321.65L789.34,321.65L789.34,333.13L752.42,333.13L752.42,440.61L740.12,440.61L740.12,386.87L740.1,386.87Z" style="fill:white;fill-rule:nonzero;"/>
        </g>
        <g transform="matrix(4.166667,0,0,4.166667,100.13991,118.347167)">
            <path d="M545.89,321.64C536.86,316.14 540.8,301.95 551.39,301.95C557.05,301.95 562.06,306.96 562.06,312.62C561.98,320.91 552.95,325.99 545.9,321.65L545.89,321.64Z" style="fill:rgb(236,110,0);fill-rule:nonzero;"/>
        </g>
    </g>
</svg>
