<svg width="100%" height="100%" viewBox="0 0 449 617" version="1.1" xmlns="http://www.w3.org/2000/svg" xmlns:xlink="http://www.w3.org/1999/xlink" xml:space="preserve" xmlns:serif="http://www.serif.com/" style="fill-rule:evenodd;clip-rule:evenodd;stroke-linejoin:round;stroke-miterlimit:2;">
    <g transform="matrix(1,0,0,1,-4359.496521,-5816.833977)">
        <g transform="matrix(4.154127,0,0,16.498563,4162.165884,3475.114151)">
            <path d="M103.641,179.288C100.532,179.288 97.761,178.536 95.328,177.03C92.894,175.524 90.978,173.376 89.578,170.585C88.178,167.793 87.479,164.477 87.479,160.636C87.479,156.779 88.178,153.454 89.578,150.663C90.978,147.871 92.894,145.719 95.328,144.205C97.761,142.692 100.532,141.935 103.641,141.935C106.749,141.935 109.516,142.692 111.941,144.205C114.367,145.719 116.275,147.871 117.666,150.663C119.058,153.454 119.754,156.779 119.754,160.636C119.754,164.477 119.058,167.793 117.666,170.585C116.275,173.376 114.367,175.524 111.941,177.03C109.516,178.536 106.749,179.288 103.641,179.288ZM103.641,174.991C105.805,174.991 107.763,174.442 109.512,173.343C111.262,172.245 112.653,170.625 113.687,168.485C114.721,166.345 115.237,163.728 115.237,160.636C115.237,157.511 114.721,154.878 113.687,152.738C112.653,150.598 111.262,148.978 109.512,147.88C107.763,146.781 105.805,146.232 103.641,146.232C101.46,146.232 99.49,146.785 97.732,147.892C95.975,148.999 94.579,150.622 93.545,152.762C92.512,154.903 91.995,157.527 91.995,160.636C91.995,163.728 92.512,166.341 93.545,168.473C94.579,170.605 95.975,172.224 97.732,173.331C99.49,174.438 101.46,174.991 103.641,174.991Z" style="fill:rgb(243,99,28);fill-rule:nonzero;"/>
        </g>
        <g transform="matrix(2.937411,2.937411,-11.666246,11.666246,6153.081178,3965.81944)">
            <path d="M103.641,179.288C100.532,179.288 97.761,178.536 95.328,177.03C92.894,175.524 90.978,173.376 89.578,170.585C88.178,167.793 87.479,164.477 87.479,160.636C87.479,156.779 88.178,153.454 89.578,150.663C90.978,147.871 92.894,145.719 95.328,144.205C97.761,142.692 100.532,141.935 103.641,141.935C106.749,141.935 109.516,142.692 111.941,144.205C114.367,145.719 116.275,147.871 117.666,150.663C119.058,153.454 119.754,156.779 119.754,160.636C119.754,164.477 119.058,167.793 117.666,170.585C116.275,173.376 114.367,175.524 111.941,177.03C109.516,178.536 106.749,179.288 103.641,179.288ZM103.641,174.991C105.805,174.991 107.763,174.442 109.512,173.343C111.262,172.245 112.653,170.625 113.687,168.485C114.721,166.345 115.237,163.728 115.237,160.636C115.237,157.511 114.721,154.878 113.687,152.738C112.653,150.598 111.262,148.978 109.512,147.88C107.763,146.781 105.805,146.232 103.641,146.232C101.46,146.232 99.49,146.785 97.732,147.892C95.975,148.999 94.579,150.622 93.545,152.762C92.512,154.903 91.995,157.527 91.995,160.636C91.995,163.728 92.512,166.341 93.545,168.473C94.579,170.605 95.975,172.224 97.732,173.331C99.49,174.438 101.46,174.991 103.641,174.991Z" style="fill:rgb(243,99,28);fill-rule:nonzero;"/>
        </g>
        <g transform="matrix(0.271523,0,0,0.271523,4332.152292,5325.780795)">
            <circle cx="964.5" cy="2964.5" r="75.5" style="fill:rgb(243,98,26);"/>
        </g>
    </g>
</svg>
